<svg xmlns="http://www.w3.org/2000/svg" width="300" height="300"><path fill="#FEFEFD" d="M0 0h300v300H0z" id="svg-layer-0" style="pointer-events: all;"/><path fill="#402E25" d="m132.781 192.336 3.777-.015c3.306-.004 6.61.016 9.917.044 2.023.01 4.046 0 6.07-.017 3.891-.03 7.782-.027 11.674-.012l3.652-.03c9.293.13 9.293.13 12.397 3.055 2.046 3.117 2.267 4.76 2.044 8.452l-.136 2.957L182 209l4 2c.043 1.666.04 3.334 0 5-1 1-1 1-3.562 1.063L180 217c1 3 1 3 3.813 4.875 3.696 2.464 6.47 4.599 7.722 9.012.752 4.537.292 7.815-1.535 12.113l2.438.438C195 244 195 244 196 245c.313 2.375.313 2.375 0 5-2.492 2.731-4.041 3.004-7.757 3.381q-2.31.026-4.62.007l-2.554.016c-2.783.013-5.567.005-8.35-.006q-2.903.003-5.806.01-6.083.005-12.165-.017c-5.2-.017-10.398-.007-15.597.01-3.996.012-7.991.008-11.987 0q-2.875-.004-5.751.008c-2.68.008-5.357-.004-8.036-.02l-2.403.018c-3.252-.038-5.591-.198-8.474-1.771-1.5-1.636-1.5-1.636-1.875-4.198C101 245 101 245 103 243c3.063-.235 6.042-.35 9.11-.379l2.782-.051c2.953-.054 5.905-.094 8.858-.132q5.774-.09 11.547-.192l2.81-.048A316 316 0 0 0 160 241l-1.916-.031q-9.855-.163-19.709-.341a5315 5315 0 0 0-7.36-.125q-5.282-.088-10.566-.187l-3.333-.05-3.094-.06-2.725-.048C109 240 109 240 106 239c-1.418-5.285-.643-8.242 2-13 4.217-3.908 6.755-5.11 12.418-5.246l3.303-.1q3.437-.09 6.875-.172l3.322-.103 3.024-.076c3.571-.354 6.637-1.232 10.058-2.303l-3.197-.076q-5.85-.142-11.702-.296-2.535-.066-5.072-.125-3.637-.088-7.275-.187l-2.304-.05c-5.336-.152-5.336-.152-6.45-1.266-.04-2-.043-4 0-6 3.295-1.647 6.969-1.222 10.594-1.281l2.61-.056q4.147-.088 8.296-.163 4.106-.077 8.21-.163 2.556-.054 5.11-.097c5.812-.122 11.352-.657 17.18-1.24l-48-1c0-8 0-8 1.701-10.958 5.156-3.19 10.132-2.756 16.08-2.706M137 134c3.812-.029 7.625-.047 11.438-.062l3.298-.026 3.135-.01 2.904-.016C160 134 160 134 161 135c.18 1.37.3 2.75.395 4.129 1.144 14.922 3.255 28.437 9.457 42.223 1.23 2.836 2.207 5.704 3.148 8.648-17.01.215-34.001-.431-51-1l1.39-3.191c6.661-15.535 10.147-30.048 11.376-46.87C136 137 136 137 137 134M144 63h9l-1 7 2.938-.562L158 69c1 1 1 1 1.063 4.563L159 77l-7-1 1 6h2v3l2.047.078c3.987.254 7.118.456 10.64 2.422 2.118 4.034 1.531 7.295.313 11.5-2.055 5.14-4.541 10.038-7 15h-25c-8.351-16.855-8.351-16.855-8-24 1.313-2.5 1.313-2.5 4-4 3.33-.604 6.62-.871 10-1l.434-1.828c.65-2.491 1.577-4.798 2.566-7.172l-7 1v-8l7 1z" id="svg-layer-1" style="pointer-events: all;"/><path fill="#402E25" d="M148 41c3.87 3.715 7.218 7.637 10.5 11.875l1.395 1.777c3.15 4.038 6.151 8.164 9.105 12.348 6.69-.516 12.303-2.956 18.438-5.562l3.083-1.288Q194.266 58.586 198 57c1 2 1 2-.064 5.592a501 501 0 0 1-1.647 4.627l-.871 2.465c-.924 2.608-1.859 5.212-2.793 7.816l-1.867 5.27c-4.55 12.814-4.55 12.814-5.758 15.23-7.625-.875-7.625-.875-11-2v-5l8 1 .277-2.383c.94-4.706 2.583-9.015 4.286-13.492l.998-2.664Q188.773 70.227 190 67l-3.29 1.277-4.335 1.66-2.16.842c-7.99 3.042-7.99 3.042-12.215 3.221-1.766-1.195-1.766-1.195-3.25-3.125L163 68.668 161 66q-1.28-1.664-2.562-3.324a567 567 0 0 1-3.974-5.194c-2.015-2.665-4.008-5.21-6.464-7.482-.63.822-1.258 1.645-1.906 2.492q-2.669 3.484-5.356 6.953a426 426 0 0 0-5.008 6.61l-2.042 2.695-1.801 2.422c-2.441 2.365-3.471 2.804-6.887 2.828-3.049-.903-5.91-2.146-8.812-3.437l-2.39-1.026A638 638 0 0 1 108 67c0 3.008.466 4.579 1.531 7.344l.957 2.527L111.5 79.5q.99 2.576 1.969 5.156l.888 2.307C115 89 115 89 115 92l8-1v5c-3.877 1.193-6.916 2-11 2a5091 5091 0 0 1-6.036-16.553 2060 2060 0 0 0-2.058-5.634c-.988-2.693-1.965-5.39-2.941-8.086l-.944-2.554C99.29 63.135 98.637 61.069 98 59l1-2 27 11c3.646-3.646 6.809-7.166 9.875-11.25l2.61-3.434 1.283-1.694a708 708 0 0 1 5.357-6.934l1.695-2.176zM132.807 124.773q2.46.001 4.92.032l2.614.008c2.762.011 5.523.037 8.284.062q2.805.016 5.61.027 6.882.035 13.765.098l2 4c-2 2-2 2-5.807 2.227q-2.46-.001-4.92-.032l-2.614-.008a1611 1611 0 0 1-8.284-.062q-2.805-.016-5.61-.027A3330 3330 0 0 1 129 131l-2-4c2-2 2-2 5.807-2.227M135.96 116.886l6 .02q3.301.011 6.602.031 2.234.009 4.467.014 5.486.017 10.971.049c.563 1.938.563 1.938 1 4-1 1-1 1-3.96 1.114l-3.919-.016-2.08-.005a2051 2051 0 0 1-6.603-.03q-2.234-.009-4.467-.014-5.486-.017-10.971-.049c-.562-1.937-.562-1.937-1-4 1-1 1-1 3.96-1.114" id="svg-layer-2" style="pointer-events: all;"/><path fill="#FEFEFD" d="M142 140h1c.786 30.667.786 30.667-5 44h-6l.516-1.66c.848-2.774 1.669-5.556 2.484-8.34l.984-3.336c2.855-10.123 4.538-20.263 6.016-30.664" id="svg-layer-3" style="pointer-events: all;"/><path fill="#402E25" d="M172 99q2.188.465 4.375.938l2.46.527C181 101 181 101 183 102l-1 5-12-3z" id="svg-layer-4" style="pointer-events: all;"/><path fill="#FEFEFD" d="m137.723 89.902 3.34.035 3.347.028L147 90c-3.168 1.76-5.244 2.249-9 3l1 13c-6.277-8.37-6.277-8.37-5.75-13.375 1.231-2.667 1.355-2.61 4.473-2.723" id="svg-layer-5" style="pointer-events: all;"/><path fill="#402E25" d="m126 100 1 4-12 3-1-5q2.434-.794 4.875-1.562l2.742-.88C124 99 124 99 126 100" id="svg-layer-6" style="pointer-events: all;"/></svg>